<svg width="1103" height="690" viewBox="0 0 1103 690" fill="none" xmlns="http://www.w3.org/2000/svg">
<g clip-path="url(#clip0_5555_1817)">
<path d="M353.767 512.229H303.5V600.451H181.626V512.229H0.00012207V422.111L189.688 144.639H303.5V420.213H353.767V512.229ZM181.626 420.213V367.091C181.626 357.13 182.1 343.849 182.574 326.774C183.523 309.699 183.997 301.162 184.471 300.213H181.152C174.038 316.34 165.977 331.043 156.967 345.272L106.699 420.213H181.626Z" fill="#101540" fill-opacity="0.85"/>
<path d="M715.122 373.257C715.122 453.89 701.37 513.179 674.813 550.649C647.783 588.119 606.526 607.092 550.568 607.092C496.033 607.092 455.25 587.645 427.271 548.277C399.767 508.91 386.014 450.57 386.014 373.257C386.014 292.15 399.292 232.861 426.797 194.917C453.827 156.972 495.084 138 551.042 138C605.103 138 646.36 157.921 673.865 197.288C701.37 236.656 715.122 294.996 715.122 373.257ZM508.363 373.257C508.363 424.957 511.682 460.53 517.847 479.503C524.486 498.949 534.919 508.435 550.094 508.435C565.269 508.435 576.176 498.475 582.815 478.554C588.98 458.633 592.299 423.534 592.299 373.257C592.299 322.506 588.98 287.407 582.815 267.012C576.176 246.616 565.743 236.656 550.568 236.656C535.393 236.656 524.486 246.616 518.321 266.063C511.682 285.51 508.363 321.083 508.363 373.257Z" fill="#101540" fill-opacity="0.85"/>
<path d="M1102.08 512.229H1051.82V600.451H929.943V512.229H748.317V422.111L938.005 144.639H1051.82V420.213H1102.08V512.229ZM930.417 420.213V367.091C930.417 357.13 930.892 343.849 931.366 326.774C932.314 309.699 932.788 301.162 933.263 300.213H929.943C922.83 316.34 914.768 331.043 905.758 345.272L855.017 420.688H930.417V420.213Z" fill="#101540" fill-opacity="0.85"/>
</g>
<g clip-path="url(#clip1_5555_1817)">
<path d="M671.657 385.161C708.86 385.161 739.019 354.959 739.019 317.704C739.019 280.449 708.86 250.248 671.657 250.248C634.454 250.248 604.295 280.449 604.295 317.704C604.295 354.959 634.454 385.161 671.657 385.161Z" fill="white"/>
<path d="M450.034 385.161C487.237 385.161 517.396 354.959 517.396 317.704C517.396 280.449 487.237 250.248 450.034 250.248C412.831 250.248 382.672 280.449 382.672 317.704C382.672 354.959 412.831 385.161 450.034 385.161Z" fill="white"/>
<path d="M489.638 263.261C496.533 273.884 500.511 286.455 500.511 300.088C500.511 337.357 470.366 367.545 433.149 367.545C418.298 367.545 404.596 362.676 393.457 354.531C405.48 373.033 426.254 385.161 449.946 385.161C487.163 385.161 517.308 354.974 517.308 317.705C517.308 295.396 506.434 275.566 489.638 263.261Z" fill="#EFEFEF"/>
<path d="M711.261 263.261C718.156 273.884 722.134 286.455 722.134 300.088C722.134 337.357 691.989 367.545 654.772 367.545C639.921 367.545 626.218 362.676 615.08 354.531C627.102 373.033 647.877 385.161 671.568 385.161C708.785 385.161 738.93 354.974 738.93 317.705C738.93 295.396 727.969 275.566 711.261 263.261Z" fill="#EFEFEF"/>
<path d="M450.034 388.348C411.226 388.348 379.578 356.656 379.578 317.793C379.578 278.93 411.226 247.238 450.034 247.238C488.842 247.238 520.49 278.93 520.49 317.793C520.49 356.656 488.842 388.348 450.034 388.348ZM450.034 253.346C414.585 253.346 385.766 282.205 385.766 317.704C385.766 353.203 414.585 382.063 450.034 382.063C485.483 382.063 514.302 353.203 514.302 317.704C514.302 282.294 485.483 253.346 450.034 253.346Z" fill="black"/>
<path d="M426.077 328.593C444.093 328.593 458.697 313.968 458.697 295.927C458.697 277.886 444.093 263.261 426.077 263.261C408.062 263.261 393.457 277.886 393.457 295.927C393.457 313.968 408.062 328.593 426.077 328.593Z" fill="black"/>
<path d="M418.121 303.363C425.493 303.363 431.47 297.378 431.47 289.995C431.47 282.613 425.493 276.628 418.121 276.628C410.749 276.628 404.772 282.613 404.772 289.995C404.772 297.378 410.749 303.363 418.121 303.363Z" fill="white"/>
<path d="M671.657 388.348C632.848 388.348 601.201 356.656 601.201 317.793C601.201 278.93 632.848 247.238 671.657 247.238C710.465 247.238 742.113 278.93 742.113 317.793C742.113 356.656 710.465 388.348 671.657 388.348ZM671.657 253.346C636.208 253.346 607.389 282.205 607.389 317.704C607.389 353.203 636.208 382.063 671.657 382.063C707.106 382.063 735.925 353.203 735.925 317.704C735.925 282.294 707.106 253.346 671.657 253.346Z" fill="black"/>
<path d="M691.812 373.476C709.828 373.476 724.433 358.851 724.433 340.81C724.433 322.769 709.828 308.144 691.812 308.144C673.797 308.144 659.192 322.769 659.192 340.81C659.192 358.851 673.797 373.476 691.812 373.476Z" fill="black"/>
<path d="M683.856 348.245C691.229 348.245 697.205 342.26 697.205 334.878C697.205 327.495 691.229 321.51 683.856 321.51C676.484 321.51 670.508 327.495 670.508 334.878C670.508 342.26 676.484 348.245 683.856 348.245Z" fill="white"/>
<path d="M363.843 225.991C375.246 239.093 385.501 215.368 420.773 207.932C450.211 201.735 468.598 216.519 473.726 205.364C478.853 194.21 455.338 178.63 412.021 185.535C379.755 190.581 350.582 210.764 363.843 225.991Z" fill="black"/>
<path d="M756.964 228.116C744.853 240.598 735.925 216.342 701.095 206.958C672.01 199.168 652.827 212.89 648.319 201.47C643.81 190.05 668.121 175.797 710.996 185.004C742.997 191.909 771.02 213.598 756.964 228.116Z" fill="black"/>
<path d="M550.9 536.097C529.33 536.097 512.976 517.152 496.975 498.651C482.477 481.831 467.449 464.391 449.68 463.594C409.635 461.735 366.229 518.038 365.787 518.569C363.577 521.49 359.422 522.021 356.505 519.808C353.588 517.595 353.058 513.434 355.268 510.513C357.212 508.034 401.678 450.316 447.736 450.316C448.62 450.316 449.415 450.316 450.299 450.404C473.726 451.555 490.61 471.119 506.965 490.064C524.291 510.159 539.32 527.51 558.68 521.667C577.067 516.09 593.421 498.474 609.334 481.477C629.224 460.142 649.733 438.099 675.016 440.843C699.238 443.499 719.128 458.283 732.654 483.601C742.555 502.192 745.472 519.897 745.561 520.605C746.179 524.235 743.704 527.598 740.08 528.218C736.455 528.838 733.096 526.359 732.477 522.73C732.389 522.11 721.515 459.168 673.602 454.034C654.949 451.998 637.534 470.765 619.058 490.506C601.996 508.742 584.404 527.687 562.569 534.326C558.503 535.477 554.613 536.097 550.9 536.097Z" fill="black"/>
<path d="M337.322 498.474C332.283 511.045 334.405 526.094 342.096 537.16C344.306 540.347 346.869 543.179 349.963 545.57C350.936 546.366 352.262 546.543 353.146 545.57C353.942 544.773 354.118 543.091 353.146 542.383C343.333 534.681 338.294 522.11 339.267 509.717C339.532 506.264 340.416 502.9 341.654 499.625C342.096 498.474 341.123 497.146 340.062 496.792C338.825 496.526 337.764 497.323 337.322 498.474Z" fill="black"/>
<path d="M737.781 548.137C745.826 549.465 753.163 544.33 758.202 538.487C762.976 532.91 766.423 526.005 767.838 518.835C768.633 514.674 768.898 510.425 768.456 506.264C768.368 505.025 767.484 503.962 766.158 503.962C765.009 503.962 763.771 505.025 763.86 506.264C765.186 518.923 759.97 532.999 749.45 540.524C746.444 542.648 742.732 544.419 738.93 543.799C737.693 543.622 736.455 544.153 736.102 545.392C735.925 546.455 736.544 547.96 737.781 548.137Z" fill="black"/>
</g>
<path d="M438.772 46.1016C438.772 42.0022 439.496 38.3128 440.942 35.0333C442.389 31.7055 444.367 28.8842 446.874 26.5693C449.431 24.2543 452.445 22.4699 455.917 21.216C459.39 19.962 463.151 19.3351 467.203 19.3351C471.254 19.3351 475.015 19.962 478.488 21.216C481.96 22.4699 484.975 24.2543 487.531 26.5693C490.087 28.8842 492.088 31.7055 493.535 35.0333C494.982 38.3128 495.705 42.0022 495.705 46.1016C495.705 50.201 494.982 53.9386 493.535 57.3146C492.088 60.6905 490.087 63.5842 487.531 65.9956C484.975 68.3588 481.96 70.1915 478.488 71.4936C475.015 72.7958 471.254 73.4468 467.203 73.4468C463.151 73.4468 459.39 72.7958 455.917 71.4936C452.445 70.1915 449.431 68.3588 446.874 65.9956C444.367 63.5842 442.389 60.6905 440.942 57.3146C439.496 53.9386 438.772 50.201 438.772 46.1016ZM457.075 46.1016C457.075 47.7896 457.316 49.3329 457.798 50.7315C458.329 52.1301 459.028 53.3358 459.896 54.3486C460.812 55.3614 461.897 56.1571 463.151 56.7358C464.405 57.2664 465.756 57.5316 467.203 57.5316C468.649 57.5316 469.976 57.2664 471.181 56.7358C472.435 56.1571 473.52 55.3614 474.437 54.3486C475.353 53.3358 476.052 52.1301 476.535 50.7315C477.065 49.3329 477.33 47.7896 477.33 46.1016C477.33 44.4618 477.065 42.9668 476.535 41.6164C476.052 40.2178 475.353 39.0603 474.437 38.144C473.52 37.1794 472.435 36.4319 471.181 35.9014C469.976 35.3709 468.649 35.1056 467.203 35.1056C465.756 35.1056 464.405 35.3709 463.151 35.9014C461.897 36.4319 460.812 37.1794 459.896 38.144C459.028 39.0603 458.329 40.2178 457.798 41.6164C457.316 42.9668 457.075 44.4618 457.075 46.1016ZM543.919 52.8294C543.919 56.1089 543.316 59.0267 542.11 61.5828C540.953 64.1388 539.361 66.3091 537.336 68.0935C535.358 69.8297 533.043 71.156 530.391 72.0723C527.787 72.9887 525.038 73.4468 522.144 73.4468C519.299 73.4468 516.55 72.9887 513.897 72.0723C511.293 71.156 509.002 69.8297 507.024 68.0935C505.047 66.3091 503.456 64.1388 502.25 61.5828C501.092 59.0267 500.514 56.1089 500.514 52.8294C500.514 49.5981 501.092 46.7285 502.25 44.2207C503.456 41.6646 505.047 39.5185 507.024 37.7823C509.002 36.0461 511.293 34.7439 513.897 33.8758C516.55 32.9595 519.299 32.5013 522.144 32.5013C525.038 32.5013 527.787 32.9595 530.391 33.8758C533.043 34.7439 535.358 36.0461 537.336 37.7823C539.361 39.5185 540.953 41.6646 542.11 44.2207C543.316 46.7285 543.919 49.5981 543.919 52.8294ZM522.144 46.5356C520.311 46.5356 518.816 47.1626 517.659 48.4165C516.55 49.6705 515.995 51.1414 515.995 52.8294C515.995 54.6138 516.574 56.133 517.731 57.3869C518.889 58.6409 520.384 59.2678 522.216 59.2678C524.049 59.2678 525.544 58.6409 526.702 57.3869C527.859 56.133 528.438 54.6138 528.438 52.8294C528.438 51.1414 527.835 49.6705 526.629 48.4165C525.472 47.1626 523.977 46.5356 522.144 46.5356ZM576.839 73.0128C574.958 73.0128 573.101 72.6752 571.269 72C569.436 71.2766 567.941 70.2879 566.783 69.034H566.639V89.3621H550.072V33.9481H565.771V37.7823H565.915C567.314 36.1907 569.002 34.985 570.979 34.1652C572.957 33.3453 574.886 32.9353 576.767 32.9353C579.612 32.9353 582.12 33.5141 584.29 34.6716C586.46 35.829 588.269 37.3482 589.716 39.2291C591.163 41.11 592.248 43.232 592.971 45.5952C593.743 47.9584 594.129 50.3698 594.129 52.8294C594.129 55.3372 593.743 57.7969 592.971 60.2083C592.248 62.6197 591.163 64.7899 589.716 66.719C588.269 68.5999 586.46 70.1191 584.29 71.2766C582.168 72.4341 579.684 73.0128 576.839 73.0128ZM578.648 52.8294C578.648 51.1414 578.117 49.6705 577.056 48.4165C575.995 47.1626 574.452 46.5356 572.426 46.5356C570.449 46.5356 568.857 47.1626 567.652 48.4165C566.494 49.6705 565.915 51.1414 565.915 52.8294C565.915 54.6138 566.494 56.133 567.652 57.3869C568.857 58.6409 570.449 59.2678 572.426 59.2678C574.452 59.2678 575.995 58.665 577.056 57.4593C578.117 56.2053 578.648 54.662 578.648 52.8294ZM631.481 59.9189C631.481 62.475 630.927 64.6211 629.818 66.3573C628.757 68.0935 627.382 69.4921 625.694 70.5532C624.054 71.5659 622.246 72.2894 620.268 72.7234C618.291 73.2057 616.41 73.4468 614.626 73.4468C611.346 73.4468 608.115 72.9646 604.932 72C601.797 71.0837 599.072 69.7574 596.757 68.0212L604.932 58.5444C606.089 59.6054 607.44 60.4735 608.983 61.1487C610.575 61.7757 612.094 62.0892 613.541 62.0892C614.119 62.0892 614.65 61.9927 615.132 61.7998C615.663 61.5586 615.928 61.1487 615.928 60.57C615.928 59.943 615.47 59.4607 614.553 59.1231C613.685 58.7373 612.142 58.2791 609.924 57.7486C608.718 57.4593 607.488 57.0493 606.234 56.5188C604.98 55.9401 603.823 55.1926 602.762 54.2762C601.749 53.3599 600.905 52.2506 600.23 50.9485C599.555 49.5981 599.217 48.0066 599.217 46.1739C599.217 43.7143 599.747 41.6164 600.808 39.8802C601.918 38.144 603.292 36.7454 604.932 35.6843C606.62 34.5751 608.428 33.7793 610.358 33.2971C612.335 32.7666 614.192 32.5013 615.928 32.5013C618.87 32.5013 621.788 32.9354 624.681 33.8035C627.575 34.6716 630.179 35.8773 632.494 37.4206L624.681 46.7527C623.476 45.981 622.246 45.3782 620.992 44.9441C619.738 44.5101 618.508 44.293 617.302 44.293C616.483 44.293 615.807 44.4136 615.277 44.6547C614.746 44.8477 614.481 45.2576 614.481 45.8846C614.481 46.3668 614.77 46.7527 615.349 47.042C615.976 47.2832 617.375 47.6208 619.545 48.0548C621.04 48.3442 622.487 48.8023 623.886 49.4293C625.332 50.008 626.61 50.7797 627.72 51.7443C628.877 52.6606 629.793 53.7939 630.469 55.1443C631.144 56.4947 631.481 58.0862 631.481 59.9189ZM649.762 73.1575C648.508 73.1575 647.326 72.9163 646.217 72.4341C645.156 72 644.216 71.3972 643.396 70.6255C642.576 69.8539 641.925 68.9375 641.443 67.8765C641.009 66.8155 640.792 65.658 640.792 64.4041C640.792 63.1984 641.009 62.065 641.443 61.004C641.925 59.943 642.576 59.0267 643.396 58.255C644.216 57.4352 645.156 56.8082 646.217 56.3741C647.326 55.8919 648.508 55.6507 649.762 55.6507C651.016 55.6507 652.173 55.8919 653.234 56.3741C654.344 56.8082 655.308 57.4352 656.128 58.255C656.948 59.0267 657.575 59.943 658.009 61.004C658.491 62.065 658.732 63.1984 658.732 64.4041C658.732 65.658 658.491 66.8155 658.009 67.8765C657.575 68.9375 656.948 69.8539 656.128 70.6255C655.308 71.3972 654.344 72 653.234 72.4341C652.173 72.9163 651.016 73.1575 649.762 73.1575ZM641.081 20.7819H658.443V53.1911H641.081V20.7819Z" fill="black"/>
<path d="M353.066 642.728H362.262L371.976 666.426H372.389L382.103 642.728H391.3V678H384.066V655.042H383.773L374.645 677.828H369.72L360.592 654.956H360.299V678H353.066V642.728ZM428.565 655.077H421.021C420.884 654.101 420.602 653.234 420.177 652.476C419.753 651.707 419.207 651.052 418.541 650.513C417.875 649.973 417.106 649.56 416.234 649.273C415.372 648.986 414.437 648.842 413.426 648.842C411.601 648.842 410.01 649.296 408.656 650.203C407.301 651.098 406.25 652.407 405.504 654.13C404.758 655.84 404.384 657.919 404.384 660.364C404.384 662.879 404.758 664.991 405.504 666.702C406.262 668.413 407.318 669.704 408.673 670.577C410.028 671.45 411.595 671.886 413.375 671.886C414.373 671.886 415.298 671.754 416.147 671.49C417.009 671.226 417.772 670.841 418.438 670.336C419.104 669.819 419.655 669.194 420.091 668.459C420.539 667.724 420.849 666.886 421.021 665.944L428.565 665.979C428.37 667.598 427.882 669.159 427.101 670.663C426.332 672.156 425.293 673.493 423.984 674.676C422.686 675.847 421.136 676.777 419.334 677.466C417.542 678.144 415.516 678.482 413.254 678.482C410.108 678.482 407.295 677.77 404.815 676.347C402.346 674.923 400.395 672.862 398.959 670.164C397.536 667.466 396.824 664.199 396.824 660.364C396.824 656.518 397.547 653.245 398.994 650.547C400.44 647.849 402.404 645.794 404.884 644.382C407.364 642.958 410.154 642.246 413.254 642.246C415.298 642.246 417.192 642.533 418.937 643.107C420.694 643.681 422.25 644.519 423.605 645.622C424.96 646.712 426.062 648.05 426.911 649.634C427.773 651.219 428.324 653.033 428.565 655.077ZM433.912 678V642.728H441.37V671.852H456.491V678H433.912ZM480.112 642.728V678H472.655V642.728H480.112ZM505.382 652.872C505.244 651.483 504.653 650.404 503.608 649.634C502.563 648.865 501.145 648.481 499.354 648.481C498.137 648.481 497.109 648.653 496.271 648.997C495.433 649.33 494.79 649.795 494.342 650.392C493.906 650.989 493.688 651.667 493.688 652.425C493.665 653.056 493.797 653.607 494.084 654.078C494.382 654.549 494.79 654.956 495.306 655.301C495.823 655.634 496.42 655.926 497.098 656.179C497.775 656.42 498.498 656.627 499.268 656.799L502.437 657.557C503.975 657.901 505.387 658.361 506.673 658.935C507.959 659.509 509.073 660.215 510.014 661.053C510.956 661.891 511.685 662.879 512.202 664.015C512.73 665.152 513 666.455 513.011 667.925C513 670.083 512.449 671.955 511.358 673.539C510.279 675.112 508.717 676.335 506.673 677.208C504.641 678.069 502.19 678.499 499.319 678.499C496.472 678.499 493.992 678.063 491.879 677.191C489.778 676.318 488.136 675.026 486.954 673.315C485.782 671.593 485.168 669.463 485.111 666.926H492.327C492.407 668.109 492.746 669.096 493.343 669.888C493.952 670.669 494.761 671.26 495.771 671.662C496.793 672.052 497.947 672.248 499.233 672.248C500.496 672.248 501.593 672.064 502.523 671.697C503.464 671.329 504.193 670.818 504.71 670.164C505.227 669.509 505.485 668.757 505.485 667.908C505.485 667.115 505.25 666.449 504.779 665.91C504.32 665.37 503.642 664.911 502.747 664.532C501.862 664.153 500.777 663.809 499.492 663.499L495.651 662.534C492.677 661.811 490.329 660.68 488.607 659.141C486.885 657.603 486.029 655.53 486.041 652.924C486.029 650.788 486.598 648.923 487.746 647.327C488.905 645.731 490.496 644.485 492.516 643.589C494.537 642.694 496.834 642.246 499.405 642.246C502.023 642.246 504.308 642.694 506.26 643.589C508.223 644.485 509.75 645.731 510.841 647.327C511.932 648.923 512.495 650.771 512.529 652.872H505.382ZM558.754 642.728V678H552.313L536.968 655.8H536.709V678H529.252V642.728H535.797L551.021 664.911H551.331V642.728H558.754ZM597.328 660.364C597.328 664.21 596.599 667.483 595.141 670.181C593.694 672.879 591.72 674.94 589.217 676.364C586.725 677.776 583.924 678.482 580.812 678.482C577.677 678.482 574.864 677.77 572.373 676.347C569.881 674.923 567.912 672.862 566.466 670.164C565.019 667.466 564.296 664.199 564.296 660.364C564.296 656.518 565.019 653.245 566.466 650.547C567.912 647.849 569.881 645.794 572.373 644.382C574.864 642.958 577.677 642.246 580.812 642.246C583.924 642.246 586.725 642.958 589.217 644.382C591.72 645.794 593.694 647.849 595.141 650.547C596.599 653.245 597.328 656.518 597.328 660.364ZM589.768 660.364C589.768 657.873 589.395 655.771 588.648 654.061C587.913 652.35 586.874 651.052 585.531 650.168C584.188 649.284 582.615 648.842 580.812 648.842C579.009 648.842 577.436 649.284 576.093 650.168C574.75 651.052 573.705 652.35 572.959 654.061C572.224 655.771 571.856 657.873 571.856 660.364C571.856 662.856 572.224 664.957 572.959 666.668C573.705 668.378 574.75 669.676 576.093 670.56C577.436 671.444 579.009 671.886 580.812 671.886C582.615 671.886 584.188 671.444 585.531 670.56C586.874 669.676 587.913 668.378 588.648 666.668C589.395 664.957 589.768 662.856 589.768 660.364ZM599.899 648.877V642.728H628.867V648.877H618.069V678H610.697V648.877H599.899ZM644.863 678V642.728H652.32V657.281H667.459V642.728H674.899V678H667.459V663.43H652.32V678H644.863ZM681.047 678V642.728H704.814V648.877H688.504V657.281H703.591V663.43H688.504V671.852H704.883V678H681.047ZM710.743 678V642.728H724.659C727.323 642.728 729.596 643.205 731.479 644.158C733.373 645.099 734.814 646.437 735.802 648.171C736.801 649.893 737.3 651.919 737.3 654.25C737.3 656.592 736.795 658.607 735.785 660.295C734.774 661.972 733.31 663.258 731.393 664.153C729.487 665.049 727.179 665.496 724.469 665.496H715.152V659.503H723.264C724.688 659.503 725.87 659.308 726.812 658.917C727.753 658.527 728.454 657.941 728.913 657.161C729.384 656.38 729.619 655.41 729.619 654.25C729.619 653.079 729.384 652.092 728.913 651.288C728.454 650.484 727.747 649.876 726.794 649.462C725.853 649.037 724.665 648.825 723.229 648.825H718.2V678H710.743ZM729.791 661.949L738.557 678H730.325L721.748 661.949H729.791ZM742.57 678V642.728H766.337V648.877H750.028V657.281H765.115V663.43H750.028V671.852H766.406V678H742.57Z" fill="#2F345B"/>
<defs>
<clipPath id="clip0_5555_1817">
<rect width="1102.08" height="469.092" fill="white" transform="translate(0 138)"/>
</clipPath>
<clipPath id="clip1_5555_1817">
<rect width="434.052" height="366.231" fill="white" transform="translate(334.582 182.083)"/>
</clipPath>
</defs>
</svg>
